<?xml version="1.0" encoding="UTF-8" standalone="no"?>
<!-- Created with Inkscape (http://www.inkscape.org/) -->

<svg
   version="1.1"
   id="svg1"
   width="432"
   height="176.72"
   viewBox="0 0 432 176.72"
   sodipodi:docname="DME+_Logo.eps"
   xmlns:inkscape="http://www.inkscape.org/namespaces/inkscape"
   xmlns:sodipodi="http://sodipodi.sourceforge.net/DTD/sodipodi-0.dtd"
   xmlns="http://www.w3.org/2000/svg"
   xmlns:svg="http://www.w3.org/2000/svg">
  <defs
     id="defs1" />
  <sodipodi:namedview
     id="namedview1"
     pagecolor="#ffffff"
     bordercolor="#000000"
     borderopacity="0.25"
     inkscape:showpageshadow="2"
     inkscape:pageopacity="0.0"
     inkscape:pagecheckerboard="0"
     inkscape:deskcolor="#d1d1d1">
    <inkscape:page
       x="0"
       y="0"
       inkscape:label="1"
       id="page1"
       width="432"
       height="176.72"
       margin="0"
       bleed="0" />
  </sodipodi:namedview>
  <g
     id="g1"
     inkscape:groupmode="layer"
     inkscape:label="1">
    <g
       id="group-R5">
      <path
         id="path2"
         d="m 2429.65,18.6211 c -12.41,12.4102 -18.62,26.8672 -18.62,43.4297 V 516.246 h -441.79 c -18.22,0 -33.5,5.781 -45.91,17.375 -12.41,11.555 -18.62,26.449 -18.62,44.676 v 181.18 c 0,18.187 6.21,33.507 18.62,45.918 12.41,12.41 27.69,18.617 45.91,18.617 h 441.79 v 439.298 c 0,18.19 6.21,33.08 18.62,44.68 12.41,11.56 26.87,17.37 43.43,17.37 h 203.52 c 18.19,0 33.08,-5.81 44.67,-17.37 11.56,-11.6 17.38,-26.49 17.38,-44.68 V 824.012 h 439.3 c 18.19,0 33.08,-6.207 44.68,-18.617 11.56,-12.411 17.37,-27.731 17.37,-45.918 v -181.18 c 0,-18.227 -5.81,-33.121 -17.37,-44.676 -11.6,-11.594 -26.49,-17.375 -44.68,-17.375 h -439.3 V 62.0508 c 0,-16.5625 -5.82,-31.0195 -17.38,-43.4297 C 2709.68,6.21094 2694.79,0 2676.6,0 h -203.52 c -16.56,0 -31.02,6.21094 -43.43,18.6211"
         style="fill:#99d2c9;fill-opacity:1;fill-rule:nonzero;stroke:none"
         transform="matrix(0.13333333,0,0,-0.13333333,0,176.72)" />
      <path
         id="path3"
         d="m 327.875,435.867 c 50.617,0 87.813,12.078 111.594,36.238 23.758,24.157 36.418,62.7 37.961,115.618 1.527,22.242 2.3,50.996 2.3,86.285 0,35.265 -0.773,63.652 -2.3,85.129 -1.543,51.379 -15.153,89.34 -40.836,113.894 -25.707,24.543 -63.852,36.817 -114.477,36.817 H 207.078 V 435.867 Z M 8.625,278.84 C 2.875,284.59 0,291.289 0,298.969 v 747.781 c 0,8.43 2.875,15.33 8.625,20.71 5.7578,5.35 12.457,8.06 20.1328,8.06 H 327.875 c 112.742,0 200.18,-26.86 262.297,-80.54 62.125,-53.695 94.719,-131.542 97.789,-233.539 0.754,-22.253 1.152,-51.769 1.152,-88.586 0,-36.808 -0.398,-65.968 -1.152,-87.425 C 684.117,478.813 652.477,399.633 593.055,347.863 533.609,296.09 447.121,270.199 333.625,270.199 H 28.7578 c -7.6758,0 -14.375,2.879 -20.1328,8.641"
         style="fill:#482974;fill-opacity:1;fill-rule:nonzero;stroke:none"
         transform="matrix(0.13333333,0,0,-0.13333333,0,176.72)" />
      <path
         id="path4"
         d="m 832.328,278.84 c -5.75,5.75 -8.625,12.449 -8.625,20.129 v 747.781 c 0,8.43 2.875,15.33 8.625,20.71 5.758,5.35 12.457,8.06 20.133,8.06 h 124.25 c 18.406,0 31.819,-8.46 40.259,-25.32 l 202.48,-362.384 202.49,362.384 c 8.43,16.86 21.84,25.32 40.26,25.32 h 123.08 c 8.43,0 15.54,-2.71 21.31,-8.06 5.73,-5.38 8.61,-12.28 8.61,-20.71 V 298.969 c 0,-8.449 -2.88,-15.348 -8.61,-20.707 -5.77,-5.383 -12.88,-8.063 -21.31,-8.063 h -136.89 c -8.46,0 -15.54,2.68 -21.28,8.063 -5.76,5.359 -8.64,12.258 -8.64,20.707 V 730.383 L 1289.64,489.941 c -9.98,-17.656 -23.4,-26.461 -40.28,-26.461 h -59.82 c -9.97,0 -18.02,2.297 -24.16,6.903 -6.15,4.597 -11.5,11.109 -16.1,19.558 l -130,240.442 V 298.969 c 0,-7.68 -2.7,-14.379 -8.06,-20.129 -5.37,-5.762 -12.271,-8.641 -20.708,-8.641 H 852.461 c -7.676,0 -14.375,2.879 -20.133,8.641"
         style="fill:#482974;fill-opacity:1;fill-rule:nonzero;stroke:none"
         transform="matrix(0.13333333,0,0,-0.13333333,0,176.72)" />
      <path
         id="path5"
         d="m 1784.88,278.84 c -5.75,5.75 -8.64,12.449 -8.64,20.129 v 747.781 c 0,8.43 2.89,15.33 8.64,20.71 5.75,5.35 12.45,8.06 20.13,8.06 h 484.81 c 8.43,0 15.33,-2.71 20.7,-8.06 5.36,-5.38 8.05,-12.28 8.05,-20.71 V 938.613 c 0,-7.675 -2.69,-14.383 -8.05,-20.14 -5.37,-5.75 -12.27,-8.625 -20.7,-8.625 H 1975.27 V 754.539 h 289.24 c 8.43,0 15.33,-2.875 20.71,-8.633 5.36,-5.75 8.05,-12.843 8.05,-21.281 V 624.539 c 0,-7.676 -2.69,-14.383 -8.05,-20.133 -5.38,-5.754 -12.28,-8.629 -20.71,-8.629 h -289.24 v -159.91 h 323.75 c 8.43,0 15.34,-2.699 20.71,-8.051 5.36,-5.378 8.05,-12.281 8.05,-20.711 V 298.969 c 0,-7.68 -2.69,-14.379 -8.05,-20.129 -5.37,-5.762 -12.28,-8.641 -20.71,-8.641 h -494.01 c -7.68,0 -14.38,2.879 -20.13,8.641"
         style="fill:#482974;fill-opacity:1;fill-rule:nonzero;stroke:none"
         transform="matrix(0.13333333,0,0,-0.13333333,0,176.72)" />
      <path
         id="path6"
         d="m 2567.59,671.648 c 17.36,0 30.4,3.786 39.08,11.36 8.69,7.574 13.03,18.629 13.03,33.172 0,14.543 -4.34,25.601 -13.03,33.175 -8.68,7.575 -21.72,11.36 -39.08,11.36 h -59.68 v -89.067 z m -76.95,-103.003 c -1.21,1.207 -1.82,2.824 -1.82,4.847 v 198.434 c 0,2.015 0.61,3.683 1.82,4.996 1.21,1.312 2.83,1.973 4.85,1.973 h 73.61 c 21.61,0 38.64,-5.407 51.05,-16.211 12.42,-10.805 18.63,-26.309 18.63,-46.504 0,-20.2 -6.21,-35.7 -18.63,-46.5 -12.41,-10.809 -29.44,-16.211 -51.05,-16.211 h -61.19 v -79.977 c 0,-2.023 -0.66,-3.64 -1.97,-4.847 -1.31,-1.215 -2.98,-1.821 -5,-1.821 h -5.45 c -2.02,0 -3.64,0.606 -4.85,1.821"
         style="fill:#f4f7fa;fill-opacity:1;fill-rule:nonzero;stroke:none"
         transform="matrix(0.13333333,0,0,-0.13333333,0,176.72)" />
      <path
         id="path7"
         d="m 2680.89,568.645 c -1.21,1.207 -1.82,2.824 -1.82,4.847 V 772.23 c 0,2.012 0.61,3.633 1.82,4.844 1.21,1.215 2.83,1.821 4.85,1.821 h 5.76 c 2.01,0 3.63,-0.606 4.85,-1.821 1.21,-1.211 1.81,-2.832 1.81,-4.844 V 585 h 104.52 c 2.22,0 3.94,-0.602 5.15,-1.816 1.21,-1.211 1.81,-2.93 1.81,-5.149 v -4.543 c 0,-2.023 -0.65,-3.64 -1.96,-4.847 -1.32,-1.215 -2.98,-1.821 -5,-1.821 h -116.94 c -2.02,0 -3.64,0.606 -4.85,1.821"
         style="fill:#f4f7fa;fill-opacity:1;fill-rule:nonzero;stroke:none"
         transform="matrix(0.13333333,0,0,-0.13333333,0,176.72)" />
      <path
         id="path8"
         d="m 2857.66,584.852 c -13.44,14.035 -20.15,35.39 -20.15,64.074 v 123 c 0,2.015 0.61,3.683 1.82,4.996 1.21,1.312 2.83,1.973 4.85,1.973 h 5.46 c 2.21,0 3.93,-0.606 5.14,-1.821 1.21,-1.211 1.82,-2.929 1.82,-5.148 v -123.91 c 0,-22.219 5.15,-38.778 15.45,-49.688 10.3,-10.902 24.84,-16.355 43.63,-16.355 18.58,0 33.02,5.453 43.32,16.355 10.3,10.91 15.45,27.469 15.45,49.688 v 123.91 c 0,2.219 0.65,3.937 1.97,5.148 1.31,1.215 2.97,1.821 5,1.821 h 5.45 c 2.02,0 3.63,-0.661 4.85,-1.973 1.21,-1.313 1.82,-2.981 1.82,-4.996 v -123 c 0,-28.887 -6.67,-50.289 -20,-64.227 -13.32,-13.937 -32.62,-20.902 -57.86,-20.902 -25.25,0 -44.59,7.016 -58.02,21.055"
         style="fill:#f4f7fa;fill-opacity:1;fill-rule:nonzero;stroke:none"
         transform="matrix(0.13333333,0,0,-0.13333333,0,176.72)" />
      <path
         id="path9"
         d="m 3071.25,571.523 c -11.62,5.149 -20.51,11.86 -26.66,20.145 -6.17,8.277 -9.45,17.16 -9.85,26.656 0,1.617 0.6,3.031 1.82,4.246 1.21,1.207 2.72,1.817 4.54,1.817 h 6.07 c 3.62,0 5.85,-2.02 6.65,-6.063 1.42,-9.691 6.97,-18.176 16.67,-25.445 9.69,-7.274 23.62,-10.906 41.81,-10.906 19.18,0 33.47,3.484 42.87,10.449 9.38,6.973 14.08,16.711 14.08,29.238 0,7.672 -2.27,13.981 -6.82,18.938 -4.54,4.941 -11.16,9.285 -19.84,13.023 -8.69,3.734 -21.81,8.434 -39.38,14.086 -15.56,5.047 -27.73,9.996 -36.51,14.844 -8.78,4.847 -15.3,10.804 -19.53,17.879 -4.25,7.066 -6.37,16.054 -6.37,26.961 0,10.3 2.77,19.589 8.33,27.871 5.55,8.281 13.59,14.793 24.08,19.543 10.5,4.742 23.03,7.117 37.58,7.117 14.94,0 27.76,-2.68 38.47,-8.027 10.7,-5.356 18.78,-12.122 24.24,-20.301 5.45,-8.176 8.37,-16.41 8.78,-24.688 0,-1.621 -0.56,-3.027 -1.67,-4.242 -1.11,-1.211 -2.68,-1.816 -4.69,-1.816 h -6.06 c -1.41,0 -2.84,0.457 -4.25,1.359 -1.41,0.91 -2.21,2.473 -2.42,4.699 -1.21,10.098 -6.61,18.43 -16.21,24.992 -9.59,6.563 -21.66,9.848 -36.19,9.848 -15.56,0 -27.93,-3.031 -37.12,-9.09 -9.19,-6.058 -13.78,-15.144 -13.78,-27.265 0,-7.875 2.07,-14.387 6.21,-19.539 4.13,-5.149 10.35,-9.594 18.63,-13.332 8.28,-3.739 20.49,-8.235 36.65,-13.485 16.57,-5.25 29.49,-10.297 38.78,-15.144 9.29,-4.848 16.31,-10.707 21.05,-17.575 4.76,-6.863 7.13,-15.75 7.13,-26.656 0,-18.176 -6.77,-32.367 -20.3,-42.566 -13.54,-10.199 -32.11,-15.297 -55.74,-15.297 -15.76,0 -29.44,2.574 -41.05,7.726"
         style="fill:#f4f7fa;fill-opacity:1;fill-rule:nonzero;stroke:none"
         transform="matrix(0.13333333,0,0,-0.13333333,0,176.72)" />
      <path
         id="path10"
         d="m 2937.07,418.656 h 19.42 c 2.03,0 2.31,-0.269 2.31,-2.308 v -38.149 c 0,-11.265 4.61,-16.562 11.81,-16.562 7.06,0 11.4,6.109 13.3,15.613 v 36.652 c 0,2.039 -0.27,2.313 -2.31,2.313 h -6.51 c -0.55,0 -0.82,0.133 -0.82,1.219 0,1.086 0.27,1.222 0.82,1.222 h 19.95 c 2.04,0 2.31,-0.269 2.31,-2.308 v -51.317 c 0,-2.035 0.27,-2.308 2.31,-2.308 h 5.56 c 0.55,0 0.82,-0.133 0.82,-1.219 0,-1.086 -0.27,-1.223 -0.82,-1.223 h -18.46 c -2.03,0 -2.31,0.407 -2.31,2.309 0,1.086 0.14,5.699 0.28,8.687 l -0.41,0.27 c -2.45,-7.195 -7.33,-12.895 -17.38,-12.895 -14.12,0 -21.58,7.602 -21.58,23.485 v 31.765 c 0,2.039 -0.28,2.313 -2.31,2.313 h -5.98 c -0.54,0 -0.81,0.133 -0.81,1.219 0,1.086 0.27,1.222 0.81,1.222"
         style="fill:#482974;fill-opacity:1;fill-rule:nonzero;stroke:none"
         transform="matrix(0.13333333,0,0,-0.13333333,0,176.72)" />
      <path
         id="path11"
         d="m 3032.19,361.637 c 5.44,0 9.78,5.297 10.59,14.254 v 11.812 c -2.3,1.492 -5.7,2.852 -9.23,2.852 -6.65,0 -10.99,-3.664 -10.99,-14.934 0,-10.453 3.39,-13.984 9.63,-13.984 z m -1.22,31.226 c 5.16,0 8.83,-1.222 11.81,-2.582 v 13.168 c 0,10.321 -4.88,14.395 -11.54,14.395 -6.78,0 -10.18,-2.852 -10.18,-5.571 0,-3.121 2.58,-4.343 2.58,-8.007 0,-2.852 -2.17,-5.293 -5.56,-5.293 -3.26,0 -5.84,3.39 -5.84,7.328 0,6.652 8.01,13.984 19,13.984 16.57,0 24.71,-7.875 24.71,-21.449 v -31.09 c 0,-4.344 1.63,-5.699 4.35,-5.699 1.63,0 2.89,0.582 4.47,0.644 2.27,0.032 2.59,-0.781 2.04,-1.187 -0.98,-0.598 -0.19,-1.223 -1.88,-1.223 -2.36,0 -5.56,-1.629 -8.16,-1.629 -5.98,0 -11.14,4.481 -12.9,10.043 h -0.54 c -2.18,-6.379 -7.88,-10.043 -15.07,-10.043 -13.71,0 -19.82,7.739 -19.82,16.969 0,10.996 8.14,17.242 22.53,17.242"
         style="fill:#482974;fill-opacity:1;fill-rule:nonzero;stroke:none"
         transform="matrix(0.13333333,0,0,-0.13333333,0,176.72)" />
      <path
         id="path12"
         d="m 3098.75,362.723 h 7.2 c 2.04,0 2.31,0.273 2.31,2.308 v 48.871 c 0,2.039 -0.27,2.313 -2.31,2.313 h -5.84 c -0.54,0 -0.81,0.133 -0.81,1.219 0,1.086 0.27,1.222 0.81,1.222 h 19.28 c 2.04,0 2.31,-0.269 2.31,-2.308 v -51.317 c 0,-2.035 0.27,-2.308 2.31,-2.308 h 10.96 c 0.55,0 0.82,-0.133 0.82,-1.219 0,-1.086 -0.27,-1.223 -0.82,-1.223 h -36.22 c -0.54,0 -0.81,0.137 -0.81,1.223 0,1.086 0.27,1.219 0.81,1.219"
         style="fill:#b0b1b3;fill-opacity:1;fill-rule:nonzero;stroke:none"
         transform="matrix(0.13333333,0,0,-0.13333333,0,176.72)" />
      <path
         id="path13"
         d="m 3155.43,420.285 c 7.33,0 10.32,-3.394 12.76,-3.394 1.36,0 1.9,0.679 2.85,1.765 0.41,0.543 0.82,0.817 1.5,0.817 0.68,0 0.95,-0.41 0.95,-1.086 V 403.18 c 0,-0.407 -0.54,-0.817 -1.22,-0.817 -0.68,0 -1.09,0.274 -1.23,0.817 -2.44,10.179 -7.05,14.664 -15.61,14.664 -6.11,0 -9.64,-3.668 -9.64,-9.098 0,-4.344 2.86,-8.687 13.58,-12.219 13.3,-4.343 18.6,-10.859 18.6,-19.277 0,-10.859 -7.74,-18.598 -21.45,-18.598 -8.69,0 -11.68,3.801 -15.88,3.801 -1.36,0 -2.31,0.113 -3.53,-1.383 -0.41,-0.543 -0.82,-0.789 -1.5,-0.789 -0.68,0 -0.95,0.407 -0.95,1.086 v 20.227 c 0,0.406 0.41,0.812 1.22,0.812 0.95,0 1.09,-0.406 1.23,-0.812 2.71,-13.168 8.96,-20.5 19.41,-20.5 8.01,0 12.76,4.344 12.76,10.726 0,6.11 -3.67,10.317 -14.12,13.711 -12.49,4.074 -18.05,9.641 -18.05,18.871 0,10.047 8.55,15.883 18.32,15.883"
         style="fill:#b0b1b3;fill-opacity:1;fill-rule:nonzero;stroke:none"
         transform="matrix(0.13333333,0,0,-0.13333333,0,176.72)" />
      <path
         id="path14"
         d="m 3184.74,417.363 h -0.49 c -0.16,0 -0.19,-0.027 -0.19,-0.273 v -1.965 h 0.65 c 0.6,0 1.04,0.406 1.04,1.227 0,0.711 -0.41,1.011 -1.01,1.011 z m 0.9,-2.347 v -0.11 c 1.07,-0.164 1.81,-0.574 1.81,-1.668 V 412.5 c 0,-0.301 0.08,-0.516 0.35,-0.516 0.19,0 0.3,0.028 0.46,0.11 0.09,0.054 0.28,-0.274 0.2,-0.328 -0.33,-0.219 -0.66,-0.328 -1.15,-0.328 -0.79,0 -1.37,0.492 -1.37,1.226 v 0.766 c 0,0.793 -0.38,1.258 -1.14,1.258 h -0.74 v -2.434 c 0,-0.242 0.03,-0.27 0.27,-0.27 h 0.47 c 0.05,0 0.08,-0.054 0.08,-0.218 0,-0.164 -0.03,-0.219 -0.08,-0.219 h -2.95 c -0.06,0 -0.09,0.055 -0.09,0.219 0,0.164 0.03,0.218 0.09,0.218 h 0.43 c 0.25,0 0.28,0.028 0.28,0.27 v 4.836 c 0,0.246 -0.03,0.273 -0.28,0.273 h -0.41 c -0.05,0 -0.08,0.055 -0.08,0.219 0,0.164 0.03,0.219 0.08,0.219 h 3.2 c 1.64,0 2.32,-0.602 2.32,-1.395 0,-0.738 -0.52,-1.226 -1.75,-1.39 z m -0.65,-5.465 c 2.81,0 5.05,2.16 5.05,5.109 0,2.949 -2.24,5.133 -5.05,5.133 -2.79,0 -5.06,-2.184 -5.06,-5.133 0,-2.949 2.27,-5.109 5.06,-5.109 z m 0,10.734 c 3.14,0 5.6,-2.402 5.6,-5.625 0,-3.222 -2.46,-5.597 -5.6,-5.597 -3.14,0 -5.6,2.375 -5.6,5.597 0,3.223 2.46,5.625 5.6,5.625"
         style="fill:#b0b1b3;fill-opacity:1;fill-rule:nonzero;stroke:none"
         transform="matrix(0.13333333,0,0,-0.13333333,0,176.72)" />
      <path
         id="path15"
         d="m 2824.22,429 c 1.94,6.512 4.75,12.25 8.42,17.188 3.66,4.941 8.14,8.902 13.43,11.867 5.29,2.972 11.27,4.453 17.96,4.453 6.69,0 12.67,-1.481 17.96,-4.453 5.29,-2.965 9.76,-6.926 13.43,-11.867 3.67,-4.938 6.47,-10.676 8.41,-17.188 1.95,-6.52 2.92,-13.316 2.92,-20.418 0,-7.102 -0.97,-13.91 -2.92,-20.422 -1.94,-6.515 -4.74,-12.246 -8.41,-17.191 -3.67,-4.942 -8.14,-8.903 -13.43,-11.864 -5.29,-2.972 -11.27,-4.457 -17.96,-4.457 -6.69,0 -12.67,1.485 -17.96,4.457 -5.29,2.961 -9.77,6.922 -13.43,11.864 -3.67,4.945 -6.48,10.676 -8.42,17.191 -1.94,6.512 -2.91,13.32 -2.91,20.422 0,7.102 0.97,13.898 2.91,20.418 m -8.95,-64.602 c 6.15,-5.171 13.37,-9.125 21.67,-11.847 8.3,-2.731 17.12,-4.102 26.47,-4.102 9.34,0 18.16,1.371 26.46,4.102 8.31,2.722 15.53,6.676 21.68,11.847 6.14,5.176 11.03,11.469 14.66,18.915 3.63,7.433 5.44,15.859 5.44,25.269 0,9.41 -1.81,17.84 -5.44,25.27 -3.63,7.437 -8.52,13.734 -14.66,18.906 -6.15,5.176 -13.37,9.117 -21.68,11.851 -8.3,2.731 -17.12,4.102 -26.46,4.102 -9.35,0 -18.17,-1.371 -26.47,-4.102 -8.3,-2.734 -15.52,-6.675 -21.67,-11.851 -6.15,-5.172 -11.04,-11.469 -14.67,-18.906 -3.62,-7.43 -5.44,-15.86 -5.44,-25.27 0,-9.41 1.82,-17.836 5.44,-25.269 3.63,-7.446 8.52,-13.739 14.67,-18.915"
         style="fill:#482974;fill-opacity:1;fill-rule:nonzero;stroke:none"
         transform="matrix(0.13333333,0,0,-0.13333333,0,176.72)" />
      <path
         id="path16"
         d="m 3113.48,350.809 c -1.17,-2.125 -44.29,-38.239 -132.85,-8.102 -46.7,15.891 -68.53,27.711 -115.8,27.711 -10.27,0 -28.37,-2.695 -37.15,-6.758 0,0 4.93,-4.062 10.69,-2.594 5.77,1.473 18.38,3.547 24.4,3.547 47.83,0 58.79,-16.633 117.86,-34.519 67.08,-20.305 112.77,-6.582 136.05,19.695 1,1.121 -2.34,2.57 -3.2,1.02"
         style="fill:#482974;fill-opacity:1;fill-rule:nonzero;stroke:none"
         transform="matrix(0.13333333,0,0,-0.13333333,0,176.72)" />
      <path
         id="path17"
         d="m 3065.3,362.723 h 7.53 c 2.03,0 2.3,0.273 2.3,2.308 v 89.481 c 0,2.035 -0.27,2.304 -2.3,2.304 h -6.39 c -0.54,0 -0.81,0.137 -0.81,1.223 0,1.086 0.27,1.223 0.81,1.223 h 19.82 c 2.04,0 2.31,-0.274 2.31,-2.309 v -91.922 c 0,-2.035 0.27,-2.308 2.31,-2.308 h 7.43 c 0.54,0 0.82,-0.133 0.82,-1.219 0,-1.086 -0.28,-1.223 -0.82,-1.223 h -34.48 c -0.55,0 -0.82,0.137 -0.82,1.223 0,1.086 1.75,1.219 2.29,1.219"
         style="fill:#482974;fill-opacity:1;fill-rule:nonzero;stroke:none"
         transform="matrix(0.13333333,0,0,-0.13333333,0,176.72)" />
      <path
         id="path18"
         d="m 3113.63,451.031 c 4.46,0 7.93,-3.718 7.93,-7.808 0,-4.09 -3.47,-7.688 -7.93,-7.688 -4.46,0 -7.81,3.598 -7.81,7.688 0,4.09 3.35,7.808 7.81,7.808"
         style="fill:#b0b1b3;fill-opacity:1;fill-rule:nonzero;stroke:none"
         transform="matrix(0.13333333,0,0,-0.13333333,0,176.72)" />
    </g>
  </g>
</svg>
